<svg width="50" height="50" xmlns="http://www.w3.org/2000/svg">

 <g>
  <title>background</title>
  <rect fill="none" id="canvas_background" height="52" width="52" y="-1" x="-1"/>
 </g>
 <g>
  <title>Layer 1</title>
  <g stroke="null" id="svg_13">
   <path stroke="null" id="svg_1" d="m15.652926,6.557884c0,-3.419485 -2.682675,-6.191177 -5.99234,-6.191177s-5.99234,2.771692 -5.99234,6.191177s2.682675,6.191177 5.99234,6.191177c3.307992,-0.003887 5.988578,-2.773419 5.99234,-6.191177zm-5.99234,-2.653361l0,-1.768908c2.362911,0.003023 4.277317,1.980952 4.280243,4.422269l-1.712097,0c0,-1.465308 -1.149897,-2.653361 -2.568146,-2.653361zm0,0"/>
   <path stroke="null" id="svg_2" d="m18.991432,13.668927c0.112022,-0.451296 0.050577,-0.929799 -0.170959,-1.33575c-0.226134,-0.410701 -0.602327,-0.710413 -1.044563,-0.831335c-0.145879,-0.034981 -0.295103,-0.052687 -0.445162,-0.053119c-0.299701,0 -6.779837,3.767998 -6.779837,3.767998c-0.397929,0.233206 -0.687598,0.622314 -0.804635,1.078792c-0.111186,0.454319 -0.050159,0.935413 0.170959,1.344387c0.478183,0.843427 1.524836,1.131479 2.345773,0.645634l5.923789,-3.537815c0.397929,-0.233206 0.687598,-0.621882 0.804635,-1.078792zm0,0"/>
   <path stroke="null" id="svg_3" d="m19.933169,43.156479l14.715424,-7.59732l-3.680841,-3.166414l-11.034582,6.518528l0,4.245205zm0,0"/>
   <path stroke="null" id="svg_4" d="m29.66654,31.127821l-0.565126,-0.583446c-0.337738,-0.342035 -0.877784,-0.342035 -1.215522,0c-0.020482,0.02548 -0.043471,0.049232 -0.068551,0.070825l-7.079538,5.784362l8.928736,-5.271742zm0,0"/>
   <path stroke="null" id="svg_5" d="m46.838923,42.696545l-4.605859,-1.583207l-13.799184,6.341896l18.405043,-4.75869zm0,0"/>
   <path stroke="null" id="svg_6" d="m36.12118,36.770964l-16.188011,8.366898l0,4.280618l20.545164,-9.428416l-4.357153,-3.219101zm0,0"/>
   <path stroke="null" id="svg_7" d="m46.333571,44.651154l-20.305236,5.244966l23.866532,0l0,-3.033832l-3.561296,-2.211134zm0,0"/>
   <path stroke="null" id="svg_8" d="m22.501314,11.864607l1.712097,0c-0.002926,-2.441317 -1.917331,-4.419246 -4.280243,-4.422269l0,1.768908c1.418248,0 2.568146,1.188053 2.568146,2.653361zm0,0"/>
   <path stroke="null" id="svg_9" d="m25.925508,11.864607l1.712097,0c-0.005016,-4.394198 -3.451363,-7.954902 -7.704437,-7.960084l0,1.768908c3.307992,0.003887 5.988578,2.773419 5.99234,6.191177zm0,0"/>
   <path stroke="null" id="svg_10" d="m5.380344,17.17133l-1.712097,0c0.002926,2.441317 1.917331,4.419246 4.280243,4.422269l0,-1.768908c-1.418248,0 -2.568146,-1.188053 -2.568146,-2.653361zm0,0"/>
   <path stroke="null" id="svg_11" d="m1.95615,17.17133l-1.712097,0c0.005016,4.394198 3.451363,7.954902 7.704437,7.960084l0,-1.768908c-3.307992,-0.003887 -5.988578,-2.773419 -5.99234,-6.191177zm0,0"/>
   <path stroke="null" id="svg_12" d="m24.684071,30.915776l-7.84112,-13.319926l-1.515223,0.90216l7.464509,13.96556l1.891834,-1.547794zm0,0"/>
  </g>
 </g>
</svg>