<svg width="50" height="50" xmlns="http://www.w3.org/2000/svg">

 <g>
  <title>background</title>
  <rect fill="none" id="canvas_background" height="52" width="52" y="-1" x="-1"/>
 </g>
 <g>
  <title>Layer 1</title>
  <path stroke="#000000" fill="#000000" id="svg_1" d="m43.81493,21.72947c-0.0883,-0.27277 -0.33579,-0.45679 -0.61461,-0.45712l-2.59261,0c-0.35794,0 -0.64815,0.2992 -0.64815,0.66823l0,3.3411l-1.2963,0l0,-5.34577c0,-0.36902 -0.29022,-0.66822 -0.64816,-0.66822l-5.18521,0l0,-3.3411c0,-0.36902 -0.29022,-0.66822 -0.64815,-0.66822l-4.53707,0l0,-1.33644l8.42598,0c0.35794,0 0.64815,-0.2992 0.64815,-0.66822l0,-2.67289c0,-0.36902 -0.29021,-0.66822 -0.64815,-0.66822l-20.74087,0c-0.35794,0 -0.64815,0.2992 -0.64815,0.66822l0,2.67289c0,0.36902 0.29021,0.66822 0.64815,0.66822l8.42598,0l0,1.33644l-4.53707,0c-0.35793,0 -0.64815,0.2992 -0.64815,0.66822l0,3.65172l-3.43508,2.36227l-3.69459,0c-0.35794,0 -0.64815,0.29919 -0.64815,0.66822l0,2.00466l-1.29631,0l0,-5.34577c0,-0.36902 -0.29021,-0.66822 -0.64815,-0.66822l-2.59261,0c-0.35794,0 -0.64815,0.2992 -0.64815,0.66822l0,16.70552c0,0.36903 0.29021,0.66822 0.64815,0.66822l2.59261,0c0.35794,0 0.64815,-0.29919 0.64815,-0.66822l0,-4.67754l1.29631,0l0,2.00466c0,0.36902 0.29021,0.66822 0.64815,0.66822l3.69459,0l3.72561,2.56064c0.10602,0.07276 0.2304,0.11159 0.35762,0.11224l1.29631,0l0,2.00467c0,0.36902 0.29021,0.66822 0.64815,0.66822l9.07413,0c0.35794,0 0.64815,-0.2992 0.64815,-0.66822l0,-2.00467l7.12967,0c0.35794,0 0.64816,-0.29919 0.64816,-0.66822l0,-5.34576l1.2963,0l0,3.3411c0,0.36902 0.29021,0.66822 0.64815,0.66822l2.59261,0c0.27882,-0.00033 0.52631,-0.18435 0.61461,-0.45712l0.64815,-2.00466c0.02215,-0.06787 0.03323,-0.13932 0.03354,-0.2111l0,-8.01865c-0.00031,-0.07178 -0.01139,-0.14324 -0.03354,-0.2111l-0.64815,-2.00467zm-27.837,-10.48043l19.44457,0l0,1.33644l-19.44457,0l0,-1.33644zm9.07413,2.67289l1.29631,0l0,1.33644l-1.29631,0l0,-1.33644zm-16.85195,21.38306l-1.2963,0l0,-15.36908l1.2963,0l0,15.36908zm1.2963,-5.34576l0,-4.00933l1.29631,0l0,4.00933l-1.29631,0zm6.19321,2.78512c-0.10665,-0.07309 -0.23198,-0.11191 -0.35984,-0.11224l-3.24076,0l0,-9.35509l2.59261,0l0,4.00932c0,0.36902 0.29021,0.66822 0.64815,0.66822s0.64815,-0.2992 0.64815,-0.66822l0,-4.31994l3.6006,-2.47255c0.18071,-0.12431 0.28895,-0.33378 0.28832,-0.55794l0,-3.3411l11.66673,0l0,2.67288l-6.48152,0c-0.35794,0 -0.64815,0.2992 -0.64815,0.66822s0.29021,0.66822 0.64815,0.66822l9.72228,0l0,14.70086l-15.36133,0l-3.72339,-2.56064zm13.89951,5.23353l-7.77783,0l0,-1.33645l7.77783,0l0,1.33645zm7.77782,-2.67289l-1.2963,0l0,-14.70086l1.2963,0l0,14.70086zm1.29631,-6.01399l0,-2.67288l1.2963,0l0,2.67288l-1.2963,0zm4.53706,2.56456l-0.46744,1.44477l-1.47702,0l0,-10.69153l1.47702,0l0.46744,1.44476l0,7.802z"/>
  <line stroke="#000000" stroke-linecap="null" stroke-linejoin="null" id="svg_8" y2="36.359781" x2="7.770294" y1="20.143586" x1="7.770294" stroke-width="null" fill="none"/>
  <line stroke="#000000" stroke-linecap="null" stroke-linejoin="null" id="svg_9" y2="12.035488" x2="35.247736" y1="11.810263" x1="14.977493" fill-opacity="null" stroke-opacity="null" stroke-width="null" fill="none"/>
  <rect id="svg_11" height="10.465016" width="2.454757" y="22.989361" x="41.085117" stroke-opacity="null" stroke-width="NaN" stroke="#000000" fill="#000000"/>
  <rect stroke="#000000" id="svg_12" height="12.532179" width="20.413239" y="21.95578" x="16.925143" stroke-width="null" fill="#000000"/>
  <rect id="svg_13" height="8.656247" width="4.909513" y="23.63535" x="12.015629" fill-opacity="null" stroke-opacity="null" stroke-width="null" stroke="#000000" fill="#000000"/>
  <rect id="svg_14" height="5.555502" width="11.111004" y="17.304662" x="19.89669" fill-opacity="null" stroke-opacity="null" stroke-width="null" stroke="#000000" fill="#000000"/>
  <rect id="svg_15" height="3.100745" width="6.330688" y="20.534605" x="28.682135" fill-opacity="null" stroke-opacity="null" stroke-width="null" stroke="#000000" fill="#000000"/>
  <rect id="svg_16" height="4.134327" width="17.829286" y="21.438989" x="18.73391" fill-opacity="null" stroke-opacity="null" stroke-width="null" stroke="#000000" fill="#000000"/>
 </g>
</svg>